{
  "accessors": [
    {
      "bufferView": 2,
      "componentType": 5126,
      "count": 10203,
      "max": [
        8.689970016479492,
        5.092870235443115,
        4.922150135040283
      ],
      "min": [
        -5.193240165710449,
        -8.044469833374023,
        -8.354060173034668
      ],
      "type": "VEC3"
    },
    {
      "bufferView": 2,
      "byteOffset": 122436,
      "componentType": 5126,
      "count": 10203,
      "max": [
        0.9999171495437622,
        0.9999942183494568,
        0.9999005198478699
      ],
      "min": [
        -0.9995836019515991,
        -0.9998306035995483,
        -0.9999644160270691
      ],
      "type": "VEC3"
    },
    {
      "bufferView": 3,
      "componentType": 5126,
      "count": 10203,
      "max": [
        0.9984884262084961,
        0.9999244809150696,
        0.999773383140564,
        1.0
      ],
      "min": [
        -0.9999675750732422,
        -0.9998780488967896,
        -0.9993214011192322,
        1.0
      ],
      "type": "VEC4"
    },
    {
      "bufferView": 1,
      "componentType": 5126,
      "count": 10203,
      "max": [
        0.9999200105667114,
        0.9995999932289124
      ],
      "min": [
        9.999999747378752e-05,
        7.000000186963007e-05
      ],
      "type": "VEC2"
    },
    {
      "bufferView": 0,
      "componentType": 5125,
      "count": 59328,
      "type": "SCALAR"
    },
    {
      "bufferView": 2,
      "byteOffset": 244872,
      "componentType": 5126,
      "count": 4870,
      "max": [
        9.978289604187012,
        8.547309875488281,
        7.5171799659729
      ],
      "min": [
        -8.382089614868164,
        -11.367730140686035,
        -10.349949836730957
      ],
      "type": "VEC3"
    },
    {
      "bufferView": 2,
      "byteOffset": 303312,
      "componentType": 5126,
      "count": 4870,
      "max": [
        0.9981178641319275,
        0.9981841444969177,
        0.9992316961288452
      ],
      "min": [
        -0.9997711777687073,
        -0.9998176097869873,
        -0.998910129070282
      ],
      "type": "VEC3"
    },
    {
      "bufferView": 0,
      "byteOffset": 237312,
      "componentType": 5125,
      "count": 4878,
      "type": "SCALAR"
    }
  ],
  "asset": {
    "extras": {
      "author": "andersdt (https://sketchfab.com/andersdt)",
      "license": "CC-BY-4.0 (http://creativecommons.org/licenses/by/4.0/)",
      "source": "https://sketchfab.com/3d-models/explosion-46fb54741fbc4cc0854c03b5ef5d0624",
      "title": "Explosion"
    },
    "generator": "Sketchfab-13.74.0",
    "version": "2.0"
  },
  "bufferViews": [
    {
      "buffer": 0,
      "byteLength": 256824,
      "name": "floatBufferViews",
      "target": 34963
    },
    {
      "buffer": 0,
      "byteLength": 81624,
      "byteOffset": 256824,
      "byteStride": 8,
      "name": "floatBufferViews",
      "target": 34962
    },
    {
      "buffer": 0,
      "byteLength": 361752,
      "byteOffset": 338448,
      "byteStride": 12,
      "name": "floatBufferViews",
      "target": 34962
    },
    {
      "buffer": 0,
      "byteLength": 163248,
      "byteOffset": 700200,
      "byteStride": 16,
      "name": "floatBufferViews",
      "target": 34962
    }
  ],
  "buffers": [
    {
      "byteLength": 863448,
      "uri": "scene.bin"
    }
  ],
  "extensionsRequired": [
    "KHR_materials_pbrSpecularGlossiness"
  ],
  "extensionsUsed": [
    "KHR_materials_pbrSpecularGlossiness"
  ],
  "images": [
    {
      "uri": "textures/Fire_diffuse.png"
    },
    {
      "uri": "textures/Fire_normal.png"
    }
  ],
  "materials": [
    {
      "alphaMode": "BLEND",
      "doubleSided": true,
      "extensions": {
        "KHR_materials_pbrSpecularGlossiness": {
          "diffuseFactor": [
            1.0,
            0.24383786812995056,
            0.0,
            0.58
          ],
          "glossinessFactor": 0.64,
          "specularFactor": [
            0.0,
            0.0,
            0.0
          ]
        }
      },
      "name": "Fire_pointy"
    },
    {
      "alphaMode": "BLEND",
      "doubleSided": true,
      "extensions": {
        "KHR_materials_pbrSpecularGlossiness": {
          "diffuseFactor": [
            0.7000000000000001,
            0.7000000000000001,
            0.7000000000000001,
            0.48
          ],
          "diffuseTexture": {
            "index": 0
          },
          "glossinessFactor": 0.62,
          "specularFactor": [
            0.0,
            0.0,
            0.0
          ]
        }
      },
      "name": "Fire",
      "normalTexture": {
        "index": 1
      }
    }
  ],
  "meshes": [
    {
      "name": "Explosion",
      "primitives": [
        {
          "attributes": {
            "NORMAL": 1,
            "POSITION": 0,
            "TANGENT": 2,
            "TEXCOORD_0": 3
          },
          "indices": 4,
          "material": 1,
          "mode": 4
        }
      ]
    },
    {
      "name": "Explosion_pointy",
      "primitives": [
        {
          "attributes": {
            "NORMAL": 6,
            "POSITION": 5
          },
          "indices": 7,
          "material": 0,
          "mode": 4
        }
      ]
    }
  ],
  "nodes": [
    {
      "children": [
        1
      ],
      "matrix": [
        1.0,
        0.0,
        0.0,
        0.0,
        0.0,
        2.220446049250313e-16,
        -1.0,
        0.0,
        0.0,
        1.0,
        2.220446049250313e-16,
        0.0,
        0.0,
        0.0,
        0.0,
        1.0
      ],
      "name": "Sketchfab_model"
    },
    {
      "children": [
        2,
        4
      ],
      "name": "Root"
    },
    {
      "children": [
        3
      ],
      "name": "Explosion"
    },
    {
      "mesh": 0,
      "name": "Explosion"
    },
    {
      "children": [
        5
      ],
      "name": "Explosion_pointy"
    },
    {
      "mesh": 1,
      "name": "Explosion_pointy"
    }
  ],
  "samplers": [
    {
      "magFilter": 9729,
      "minFilter": 9987,
      "wrapS": 10497,
      "wrapT": 10497
    }
  ],
  "scene": 0,
  "scenes": [
    {
      "name": "Sketchfab_Scene",
      "nodes": [
        0
      ]
    }
  ],
  "textures": [
    {
      "sampler": 0,
      "source": 0
    },
    {
      "sampler": 0,
      "source": 1
    }
  ]
}
